<?xml version="1.0" encoding="UTF-8"?>
<svg width="16px" height="16px" viewBox="0 0 16 16" version="1.1" xmlns="http://www.w3.org/2000/svg" xmlns:xlink="http://www.w3.org/1999/xlink">
    <title>check-circle-outlined</title>
    <g id="登录注册" stroke="none" stroke-width="1" fill="none" fill-rule="evenodd">
        <g id="登录-手机验证码登录" transform="translate(-56.000000, -713.000000)" fill="#BFBFBF" fill-rule="nonzero">
            <g id="编组" transform="translate(56.000000, 712.000000)">
                <g id="check-circle-outlined" transform="translate(0.000000, 1.000000)">
                    <rect id="矩形" opacity="0" x="0" y="0" width="16" height="16"></rect>
                    <path d="M8,1 C4.134375,1 1,4.134375 1,8 C1,11.865625 4.134375,15 8,15 C11.865625,15 15,11.865625 15,8 C15,4.134375 11.865625,1 8,1 Z M8,13.8125 C4.790625,13.8125 2.1875,11.209375 2.1875,8 C2.1875,4.790625 4.790625,2.1875 8,2.1875 C11.209375,2.1875 13.8125,4.790625 13.8125,8 C13.8125,11.209375 11.209375,13.8125 8,13.8125 Z" id="形状"></path>
                </g>
            </g>
        </g>
    </g>
</svg>