<?xml version="1.0" encoding="UTF-8"?>
<svg width="36px" height="36px" viewBox="0 0 36 36" version="1.1" xmlns="http://www.w3.org/2000/svg" xmlns:xlink="http://www.w3.org/1999/xlink">
    <title>file-text-filled</title>
    <defs>
        <linearGradient x1="50%" y1="100%" x2="50%" y2="6.16297582e-31%" id="linearGradient-1">
            <stop stop-color="#9AE2A2" offset="0%"></stop>
            <stop stop-color="#61C169" offset="100%"></stop>
        </linearGradient>
    </defs>
    <g id="页面-1" stroke="none" stroke-width="1" fill="none" fill-rule="evenodd">
        <g id="我的-我的云盘-上传文件" transform="translate(-297.000000, -672.000000)" fill-rule="nonzero">
            <g id="编组-7" transform="translate(291.000000, 672.000000)">
                <g id="file-text-filled" transform="translate(6.000000, 0.000000)">
                    <rect id="矩形" fill="#000000" opacity="0" x="0" y="0" width="36" height="36"></rect>
                    <path d="M30.0445313,10.1496094 C30.2554688,10.3605469 30.375,10.6453125 30.375,10.9441406 L30.375,32.625 C30.375,33.2472656 29.8722656,33.75 29.25,33.75 L6.75,33.75 C6.12773438,33.75 5.625,33.2472656 5.625,32.625 L5.625,3.375 C5.625,2.75273437 6.12773438,2.25 6.75,2.25 L21.6808594,2.25 C21.9796875,2.25 22.2679688,2.36953125 22.4789063,2.58046875 L30.0445313,10.1496094 Z M27.7804687,11.4609375 L21.1640625,4.84453125 L21.1640625,11.4609375 L27.7804687,11.4609375 Z M11.25,16.9453125 C11.0946699,16.9453125 10.96875,17.0712324 10.96875,17.2265625 L10.96875,18.9140625 C10.96875,19.0693926 11.0946699,19.1953125 11.25,19.1953125 L24.75,19.1953125 C24.9053301,19.1953125 25.03125,19.0693926 25.03125,18.9140625 L25.03125,17.2265625 C25.03125,17.0712324 24.9053301,16.9453125 24.75,16.9453125 L11.25,16.9453125 Z M11.25,21.7265625 C11.0946699,21.7265625 10.96875,21.8524824 10.96875,22.0078125 L10.96875,23.6953125 C10.96875,23.8506426 11.0946699,23.9765625 11.25,23.9765625 L17.71875,23.9765625 C17.8740801,23.9765625 18,23.8506426 18,23.6953125 L18,22.0078125 C18,21.8524824 17.8740801,21.7265625 17.71875,21.7265625 L11.25,21.7265625 Z" id="形状" fill="url(#linearGradient-1)"></path>
                </g>
            </g>
        </g>
    </g>
</svg>