<?xml version="1.0" encoding="UTF-8"?>
<svg width="40px" height="40px" viewBox="0 0 40 40" version="1.1" xmlns="http://www.w3.org/2000/svg" xmlns:xlink="http://www.w3.org/1999/xlink">
    <title>folder-filled备份</title>
    <g id="页面-1" stroke="none" stroke-width="1" fill="none" fill-rule="evenodd">
        <g id="我的-我的云盘" transform="translate(-16.000000, -200.000000)" fill-rule="nonzero">
            <g id="folder-filled备份" transform="translate(16.000000, 200.000000)">
                <rect id="矩形" fill="#000000" opacity="0" x="0" y="0" width="40" height="40"></rect>
                <path d="M33.8,12.1853659 L20.3375,12.1853659 L15.93875,8.0804878 C15.8825,8.02926829 15.8075,8 15.7325,8 L6.2,8 C5.53625,8 5,8.52317073 5,9.17073171 L5,30.8292683 C5,31.4768293 5.53625,32 6.2,32 L33.8,32 C34.46375,32 35,31.4768293 35,30.8292683 L35,13.3560976 C35,12.7085366 34.46375,12.1853659 33.8,12.1853659 Z" id="路径" fill="#7977BD"></path>
                <path d="M15.7325,8 C15.8075,8 15.8825,8.02926829 15.93875,8.0804878 L15.93875,8.0804878 L20.139,12 L5,12 L5,9.17073171 C5,8.52317073 5.53625,8 6.2,8 L6.2,8 Z" id="形状结合" fill="#5B5796"></path>
            </g>
        </g>
    </g>
</svg>