<?xml version="1.0" encoding="UTF-8"?>
<svg width="22px" height="22px" viewBox="0 0 22 22" version="1.1" xmlns="http://www.w3.org/2000/svg" xmlns:xlink="http://www.w3.org/1999/xlink">
    <title>路径</title>
    <g id="页面-1" stroke="none" stroke-width="1" fill="none" fill-rule="evenodd">
        <g id="我的-我的云盘" transform="translate(-320.000000, -587.000000)" fill="#FFFFFF" fill-rule="nonzero">
            <path d="M341.5,599.3125 C341.5,599.553125 341.303125,599.75 341.0625,599.75 L332.75,599.75 L332.75,608.0625 C332.75,608.303125 332.553125,608.5 332.3125,608.5 L329.6875,608.5 C329.446875,608.5 329.25,608.303125 329.25,608.0625 L329.25,599.75 L320.9375,599.75 C320.696875,599.75 320.5,599.553125 320.5,599.3125 L320.5,596.6875 C320.5,596.446875 320.696875,596.25 320.9375,596.25 L329.25,596.25 L329.25,587.9375 C329.25,587.696875 329.446875,587.5 329.6875,587.5 L332.3125,587.5 C332.553125,587.5 332.75,587.696875 332.75,587.9375 L332.75,596.25 L341.0625,596.25 C341.303125,596.25 341.5,596.446875 341.5,596.6875 L341.5,599.3125 Z" id="路径"></path>
        </g>
    </g>
</svg>