<?xml version="1.0" encoding="UTF-8"?>
<svg width="18px" height="18px" viewBox="0 0 18 18" version="1.1" xmlns="http://www.w3.org/2000/svg" xmlns:xlink="http://www.w3.org/1999/xlink">
    <title>appstore-outlined</title>
    <g id="页面-1" stroke="none" stroke-width="1" fill="none" fill-rule="evenodd">
        <g id="我的-我的云盘-布局" transform="translate(-341.000000, -158.000000)" fill="#8C8C8C" fill-rule="nonzero">
            <g id="appstore-outlined" transform="translate(341.000000, 158.000000)">
                <rect id="矩形" opacity="0" x="0" y="0" width="18" height="18"></rect>
                <path d="M8.15625,2.53125 L2.8125,2.53125 C2.6578125,2.53125 2.53125,2.6578125 2.53125,2.8125 L2.53125,8.15625 C2.53125,8.3109375 2.6578125,8.4375 2.8125,8.4375 L8.15625,8.4375 C8.3109375,8.4375 8.4375,8.3109375 8.4375,8.15625 L8.4375,2.8125 C8.4375,2.6578125 8.3109375,2.53125 8.15625,2.53125 Z M7.2421875,7.2421875 L3.7265625,7.2421875 L3.7265625,3.7265625 L7.2421875,3.7265625 L7.2421875,7.2421875 Z M15.1875,2.53125 L9.84375,2.53125 C9.6890625,2.53125 9.5625,2.6578125 9.5625,2.8125 L9.5625,8.15625 C9.5625,8.3109375 9.6890625,8.4375 9.84375,8.4375 L15.1875,8.4375 C15.3421875,8.4375 15.46875,8.3109375 15.46875,8.15625 L15.46875,2.8125 C15.46875,2.6578125 15.3421875,2.53125 15.1875,2.53125 Z M14.2734375,7.2421875 L10.7578125,7.2421875 L10.7578125,3.7265625 L14.2734375,3.7265625 L14.2734375,7.2421875 Z M8.15625,9.5625 L2.8125,9.5625 C2.6578125,9.5625 2.53125,9.6890625 2.53125,9.84375 L2.53125,15.1875 C2.53125,15.3421875 2.6578125,15.46875 2.8125,15.46875 L8.15625,15.46875 C8.3109375,15.46875 8.4375,15.3421875 8.4375,15.1875 L8.4375,9.84375 C8.4375,9.6890625 8.3109375,9.5625 8.15625,9.5625 Z M7.2421875,14.2734375 L3.7265625,14.2734375 L3.7265625,10.7578125 L7.2421875,10.7578125 L7.2421875,14.2734375 Z M15.1875,9.5625 L9.84375,9.5625 C9.6890625,9.5625 9.5625,9.6890625 9.5625,9.84375 L9.5625,15.1875 C9.5625,15.3421875 9.6890625,15.46875 9.84375,15.46875 L15.1875,15.46875 C15.3421875,15.46875 15.46875,15.3421875 15.46875,15.1875 L15.46875,9.84375 C15.46875,9.6890625 15.3421875,9.5625 15.1875,9.5625 Z M14.2734375,14.2734375 L10.7578125,14.2734375 L10.7578125,10.7578125 L14.2734375,10.7578125 L14.2734375,14.2734375 Z" id="形状"></path>
            </g>
        </g>
    </g>
</svg>