<?xml version="1.0" encoding="UTF-8"?>
<svg width="20px" height="21px" viewBox="0 0 20 21" version="1.1" xmlns="http://www.w3.org/2000/svg" xmlns:xlink="http://www.w3.org/1999/xlink">
    <title>edit-square-outlined</title>
    <g id="页面-1" stroke="none" stroke-width="1" fill="none" fill-rule="evenodd">
        <g id="我的-我的云盘" transform="translate(-241.000000, -148.000000)" fill="#666666" fill-rule="nonzero">
            <g id="反馈:60/气泡菜单Popovers:5/带icon/选项个数:4项" transform="translate(225.000000, 82.803888)">
                <g id="PopMenu" transform="translate(0.000000, 0.000000)">
                    <g id="edit-square-outlined" transform="translate(16.000000, 66.000000)">
                        <rect id="矩形" opacity="0" x="0" y="0" width="20" height="20"></rect>
                        <path d="M17.65625,10 L16.5625,10 C16.4765625,10 16.40625,10.0703125 16.40625,10.15625 L16.40625,16.40625 L3.59375,16.40625 L3.59375,3.59375 L9.84375,3.59375 C9.9296875,3.59375 10,3.5234375 10,3.4375 L10,2.34375 C10,2.2578125 9.9296875,2.1875 9.84375,2.1875 L2.8125,2.1875 C2.46679688,2.1875 2.1875,2.46679688 2.1875,2.8125 L2.1875,17.1875 C2.1875,17.5332031 2.46679688,17.8125 2.8125,17.8125 L17.1875,17.8125 C17.5332031,17.8125 17.8125,17.5332031 17.8125,17.1875 L17.8125,10.15625 C17.8125,10.0703125 17.7421875,10 17.65625,10 Z" id="路径"></path>
                        <path d="M6.95117188,10.4472656 L6.9140424,12.7695312 C6.91210938,12.9433594 7.05273438,13.0859375 7.2265625,13.0859375 L7.234375,13.0859375 L9.5390625,13.0292969 C9.578125,13.0273438 9.6171875,13.0117188 9.64453125,12.984375 L17.7675781,4.87890625 C17.828125,4.81835938 17.828125,4.71875 17.7675781,4.65820313 L15.3398438,2.23242188 C15.3085938,2.20117188 15.2695313,2.1875 15.2285156,2.1875 C15.1875,2.1875 15.1484375,2.203125 15.1171875,2.23242188 L6.99609375,10.3378906 C6.96875,10.3671875 6.95117187,10.40625 6.95117188,10.4472656 Z M8.19140625,10.9082031 L15.2285156,3.88671875 L16.1113281,4.76757812 L9.0703125,11.7929687 L8.17773438,11.8144531 L8.19140625,10.9082031 L8.19140625,10.9082031 Z" id="形状"></path>
                    </g>
                </g>
            </g>
        </g>
    </g>
</svg>