<?xml version="1.0" encoding="UTF-8"?>
<svg width="18px" height="18px" viewBox="0 0 18 18" version="1.1" xmlns="http://www.w3.org/2000/svg" xmlns:xlink="http://www.w3.org/1999/xlink">
    <title>sort-descending-outlined</title>
    <g id="页面-1" stroke="none" stroke-width="1" fill="none" fill-rule="evenodd">
        <g id="我的-我的云盘-布局" transform="translate(-16.000000, -158.000000)" fill="#8C8C8C" fill-rule="nonzero">
            <g id="sort-descending-outlined" transform="translate(25.000000, 167.000000) scale(1, -1) translate(-25.000000, -167.000000) translate(16.000000, 158.000000)">
                <rect id="矩形" opacity="0" x="0" y="0" width="18" height="18"></rect>
                <path d="M8.97117184,2.75405273 C8.91492184,2.68198242 8.80593747,2.68198242 8.74968747,2.75405273 L6.78093747,5.24838867 C6.70710934,5.34155273 6.77390622,5.4769043 6.89167965,5.4769043 L8.22761715,5.4769043 L8.22761715,14.7933105 C8.22761715,14.8706543 8.2908984,14.9339355 8.36824215,14.9339355 L9.35261715,14.9339355 C9.4299609,14.9339355 9.49324215,14.8706543 9.49324215,14.7933105 L9.49324215,5.4769043 L10.8291797,5.4769043 C10.9469531,5.4769043 11.01375,5.33979492 10.9399218,5.24838867 L8.97117184,2.75405273 Z" id="形状"></path>
            </g>
        </g>
    </g>
</svg>