<?xml version="1.0" encoding="UTF-8"?>
<svg width="20px" height="21px" viewBox="0 0 20 21" version="1.1" xmlns="http://www.w3.org/2000/svg" xmlns:xlink="http://www.w3.org/1999/xlink">
    <title>cloud-server-outlined</title>
    <g id="页面-1" stroke="none" stroke-width="1" fill="none" fill-rule="evenodd">
        <g id="我的-我的云盘" transform="translate(-241.000000, -237.000000)" fill="#666666" fill-rule="nonzero">
            <g id="反馈:60/气泡菜单Popovers:5/带icon/选项个数:4项" transform="translate(225.000000, 82.803888)">
                <g id="PopMenu" transform="translate(0.000000, 0.000000)">
                    <g id="内容列表四" transform="translate(16.000000, 66.000000)">
                        <g id="cloud-server-outlined" transform="translate(0.000000, 89.000000)">
                            <rect id="矩形" opacity="0" x="0" y="0" width="20" height="20"></rect>
                            <path d="M13.75,8.7109375 L6.25,8.7109375 C6.1640625,8.7109375 6.09375,8.78125 6.09375,8.8671875 L6.09375,16.71875 C6.09375,16.8046875 6.1640625,16.875 6.25,16.875 L13.75,16.875 C13.8359375,16.875 13.90625,16.8046875 13.90625,16.71875 L13.90625,8.8671875 C13.90625,8.78125 13.8359375,8.7109375 13.75,8.7109375 Z M7.34375,9.9609375 L12.65625,9.9609375 L12.65625,12.2460938 L7.34375,12.2460938 L7.34375,9.9609375 Z M12.65625,15.625 L7.34375,15.625 L7.34375,13.3398438 L12.65625,13.3398438 L12.65625,15.625 Z" id="形状"></path>
                            <path d="M8.28125,14.609375 C8.28125,14.954553 8.56107203,15.234375 8.90625,15.234375 C9.25142797,15.234375 9.53125,14.954553 9.53125,14.609375 C9.53125,14.264197 9.25142797,13.984375 8.90625,13.984375 C8.56107203,13.984375 8.28125,14.264197 8.28125,14.609375 Z" id="路径"></path>
                            <path d="M8.28125,11.1328125 C8.28125,11.4779905 8.56107203,11.7578125 8.90625,11.7578125 C9.25142797,11.7578125 9.53125,11.4779905 9.53125,11.1328125 C9.53125,10.7876345 9.25142797,10.5078125 8.90625,10.5078125 C8.56107203,10.5078125 8.28125,10.7876345 8.28125,11.1328125 Z" id="路径"></path>
                            <path d="M15.8476562,7.20507812 C14.953125,4.84375 12.6738281,3.1640625 10.0039063,3.1640625 C7.33398438,3.1640625 5.0546875,4.84179688 4.16015625,7.203125 C2.47851562,7.64648437 1.24023437,9.18359375 1.24994264,11.0078125 C1.26171875,13.046875 2.84375,14.7050781 4.8359375,14.8828125 C4.92773438,14.890625 5.00585938,14.8183594 5.00585938,14.7265625 L5.00585938,13.546875 C5.00585938,13.46875 4.94726562,13.4023438 4.86914062,13.3925781 C4.34179688,13.3261719 3.84375,13.0957031 3.4609375,12.71875 C2.9921875,12.2597656 2.734375,11.6425781 2.734375,10.9882812 C2.734375,10.4414062 2.91210937,9.92578125 3.24609375,9.49609375 C3.57226562,9.078125 4.03125,8.77539062 4.53710937,8.64257812 L5.27734375,8.44726562 L5.54882812,7.73046875 C5.71679688,7.28515625 5.95117188,6.8671875 6.24609375,6.49023438 C6.53710937,6.11523438 6.8828125,5.78710938 7.26953125,5.51367188 C8.07226562,4.94921875 9.01757812,4.65039063 10.0039062,4.65039063 C10.9902344,4.65039063 11.9355469,4.94921875 12.7382812,5.515625 C13.1269531,5.7890625 13.4707031,6.1171875 13.7617188,6.4921875 C14.0566406,6.86914063 14.2910156,7.28710938 14.4589844,7.73242188 L14.7285156,8.44726563 L15.4667969,8.64257813 C16.5253906,8.92382812 17.265625,9.88671875 17.265625,10.9863281 C17.265625,11.6425781 17.0078125,12.2578125 16.5390625,12.7167969 C16.1582031,13.0917969 15.6621094,13.3242188 15.1347656,13.390625 C15.0566406,13.4003906 15,13.4667969 15,13.5449219 L15,14.7265625 C15,14.8183594 15.0800781,14.890625 15.171875,14.8828125 C17.1582031,14.703125 18.7363281,13.046875 18.7500826,11.0117188 C18.7617188,9.1875 17.5253906,7.65039062 15.8476562,7.20507812 L15.8476562,7.20507812 Z" id="路径"></path>
                        </g>
                    </g>
                </g>
            </g>
        </g>
    </g>
</svg>