<?xml version="1.0" encoding="UTF-8"?>
<svg width="20px" height="21px" viewBox="0 0 20 21" version="1.1" xmlns="http://www.w3.org/2000/svg" xmlns:xlink="http://www.w3.org/1999/xlink">
    <title>reloadtime-outlined</title>
    <g id="页面-1" stroke="none" stroke-width="1" fill="none" fill-rule="evenodd">
        <g id="我的-我的云盘" transform="translate(-241.000000, -192.000000)" fill="#666666" fill-rule="nonzero">
            <g id="反馈:60/气泡菜单Popovers:5/带icon/选项个数:4项" transform="translate(225.000000, 82.803888)">
                <g id="PopMenu" transform="translate(0.000000, 0.000000)">
                    <g id="reloadtime-outlined" transform="translate(16.000000, 110.000000)">
                        <rect id="矩形" opacity="0" x="0" y="0" width="20" height="20"></rect>
                        <path d="M10.4707031,5.33203125 L9.53125,5.33203125 C9.4453125,5.33203125 9.375,5.40234375 9.375,5.48828125 L9.375,10.8652344 C9.375,10.9160156 9.3984375,10.9628906 9.43945313,10.9921875 L12.6679688,13.3496094 C12.7382813,13.4003906 12.8359375,13.3867187 12.8867188,13.3164062 L13.4453125,12.5546875 C13.4980469,12.4824219 13.4824219,12.3847656 13.4121094,12.3359375 L10.6269531,10.3222656 L10.6269531,5.48828125 C10.6269531,5.40234375 10.5566406,5.33203125 10.4707031,5.33203125 Z M14.7636719,6.80078125 L17.8261719,7.54882812 C17.9238281,7.57226562 18.0195313,7.49804687 18.0195313,7.3984375 L18.0351563,4.24414062 C18.0351563,4.11328125 17.8847656,4.0390625 17.7832031,4.12109375 L14.7050781,6.52539062 C14.6015625,6.60742187 14.6367188,6.76953125 14.7636719,6.80078125 Z M18.0390625,12.6816406 L16.9316406,12.3007812 C16.8515625,12.2734375 16.7636719,12.3144531 16.734375,12.3945312 C16.6972656,12.4941406 16.6582031,12.5917969 16.6171875,12.6894531 C16.2695313,13.5117187 15.7714844,14.2519531 15.1347656,14.8867187 C14.5,15.5214844 13.7597656,16.0214844 12.9375,16.3691406 C12.0859375,16.7285156 11.1816406,16.9121094 10.2480469,16.9121094 C9.31445313,16.9121094 8.41015625,16.7304687 7.55859375,16.3691406 C6.73632813,16.0214844 5.99609375,15.5214844 5.36132813,14.8867187 C4.7265625,14.2519531 4.22851563,13.5117187 3.87890625,12.6894531 C3.52148438,11.8398437 3.33984375,10.9335937 3.33984375,10 C3.33984375,9.06640625 3.52148438,8.16015625 3.8828125,7.30859375 C4.23046875,6.48632812 4.72851563,5.74609375 5.36523438,5.11132812 C6,4.4765625 6.74023438,3.9765625 7.5625,3.62890625 C8.41015625,3.26757812 9.31640625,3.0859375 10.25,3.0859375 C11.1835938,3.0859375 12.0878906,3.26757812 12.9394531,3.62890625 C13.7617188,3.9765625 14.5019531,4.4765625 15.1367188,5.11132812 C15.3359375,5.3125 15.5234375,5.52148438 15.6953125,5.7421875 L16.8632813,4.828125 C15.3261719,2.86328125 12.9335938,1.59960937 10.2460938,1.60156024 C5.56640625,1.60351562 1.80859375,5.40429687 1.85546875,10.0859375 C1.90234375,14.6855469 5.64257813,18.3984375 10.25,18.3984375 C13.8730469,18.3984375 16.9589844,16.1015602 18.1347656,12.8847656 C18.1640625,12.8027344 18.1210938,12.7109375 18.0390625,12.6816406 Z" id="形状"></path>
                    </g>
                </g>
            </g>
        </g>
    </g>
</svg>