<?xml version="1.0" encoding="UTF-8"?>
<svg width="20px" height="21px" viewBox="0 0 20 21" version="1.1" xmlns="http://www.w3.org/2000/svg" xmlns:xlink="http://www.w3.org/1999/xlink">
    <title>swap-outlined</title>
    <g id="页面-1" stroke="none" stroke-width="1" fill="none" fill-rule="evenodd">
        <g id="我的-我的云盘" transform="translate(-241.000000, -103.000000)" fill="#666666" fill-rule="nonzero">
            <g id="反馈:60/气泡菜单Popovers:5/带icon/选项个数:4项" transform="translate(225.000000, 82.803888)">
                <g id="PopMenu" transform="translate(0.000000, 0.000000)">
                    <g id="内容列表一" transform="translate(16.000000, 21.102362)">
                        <g id="swap-outlined" transform="translate(10.000000, 10.000000) rotate(90.000000) translate(-10.000000, -10.000000) ">
                            <rect id="矩形" opacity="0" x="0" y="0" width="20" height="20"></rect>
                            <path d="M16.5605469,11.5625 L2.96875,11.5625 C2.8828125,11.5625 2.8125,11.6328125 2.8125,11.71875 L2.8125,12.890625 C2.8125,12.9765625 2.8828125,13.046875 2.96875,13.046875 L14.7890625,13.046875 L11.9707031,16.6210938 C11.890625,16.7226562 11.9628906,16.875 12.09375,16.875 L13.5097656,16.875 C13.6054687,16.875 13.6953125,16.8320312 13.7558594,16.7558594 L17.0527344,12.5742188 C17.375,12.1640625 17.0839844,11.5625 16.5605469,11.5625 L16.5605469,11.5625 Z M17.03125,6.953125 L5.2109375,6.953125 L8.02929688,3.37890625 C8.109375,3.27734375 8.03710938,3.125 7.90625,3.125 L6.49023438,3.125 C6.39453125,3.125 6.3046875,3.16796875 6.24414062,3.24414062 L2.94726563,7.42578125 C2.625,7.8359375 2.91601563,8.4375 3.4375,8.4375 L17.03125,8.4375 C17.1171875,8.4375 17.1875,8.3671875 17.1875,8.28125 L17.1875,7.109375 C17.1875,7.0234375 17.1171875,6.953125 17.03125,6.953125 Z" id="形状"></path>
                        </g>
                    </g>
                </g>
            </g>
        </g>
    </g>
</svg>