<?xml version="1.0" encoding="UTF-8"?>
<svg width="18px" height="18px" viewBox="0 0 18 18" version="1.1" xmlns="http://www.w3.org/2000/svg" xmlns:xlink="http://www.w3.org/1999/xlink">
    <title>orderedlist-outlined</title>
    <g id="页面-1" stroke="none" stroke-width="1" fill="none" fill-rule="evenodd">
        <g id="我的办公-企业网盘" transform="translate(-341.000000, -196.000000)" fill="#8C8C8C" fill-rule="nonzero">
            <g id="orderedlist-outlined" transform="translate(341.000000, 196.000000)">
                <rect id="矩形" opacity="0" x="0" y="0" width="18" height="18"></rect>
                <path d="M15.0205714,13.8985714 L4.008,13.8985714 C3.92502857,13.8985714 3.85714286,13.9622143 3.85714286,14.04 L3.85714286,15.03 C3.85714286,15.1077857 3.92502857,15.1714286 4.008,15.1714286 L15.0205714,15.1714286 C15.1035429,15.1714286 15.1714286,15.1077857 15.1714286,15.03 L15.1714286,14.04 C15.1714286,13.9622143 15.1035429,13.8985714 15.0205714,13.8985714 Z M15.0205714,3.85714286 L4.008,3.85714286 C3.92502857,3.85714286 3.85714286,3.92078571 3.85714286,3.99857143 L3.85714286,4.98857143 C3.85714286,5.06635714 3.92502857,5.13 4.008,5.13 L15.0205714,5.13 C15.1035429,5.13 15.1714286,5.06635714 15.1714286,4.98857143 L15.1714286,3.99857143 C15.1714286,3.92078571 15.1035429,3.85714286 15.0205714,3.85714286 Z M15.0205714,8.87785714 L4.008,8.87785714 C3.92502857,8.87785714 3.85714286,8.9415 3.85714286,9.01928571 L3.85714286,10.0092857 C3.85714286,10.0870714 3.92502857,10.1507143 4.008,10.1507143 L15.0205714,10.1507143 C15.1035429,10.1507143 15.1714286,10.0870714 15.1714286,10.0092857 L15.1714286,9.01928571 C15.1714286,8.9415 15.1035429,8.87785714 15.0205714,8.87785714 Z" id="形状"></path>
            </g>
        </g>
    </g>
</svg>