<?xml version="1.0" encoding="UTF-8"?>
<svg width="24px" height="24px" viewBox="0 0 24 24" version="1.1" xmlns="http://www.w3.org/2000/svg" xmlns:xlink="http://www.w3.org/1999/xlink">
    <title>close-outlined</title>
    <g id="页面-1" stroke="none" stroke-width="1" fill="none" fill-rule="evenodd">
        <g id="我的-我的云盘-历史记录-选中1个" transform="translate(-16.000000, -55.000000)" fill="#434447" fill-rule="nonzero">
            <g id="close-outlined" transform="translate(16.000000, 55.000000)">
                <rect id="矩形" opacity="0" x="0" y="0" width="24" height="24"></rect>
                <path d="M13.2140625,12 L19.3664062,4.66640625 C19.4695312,4.54453125 19.3828125,4.359375 19.2234375,4.359375 L17.353125,4.359375 C17.2429687,4.359375 17.1375,4.40859375 17.0648437,4.49296875 L11.990625,10.5421875 L6.91640625,4.49296875 C6.84609375,4.40859375 6.740625,4.359375 6.628125,4.359375 L4.7578125,4.359375 C4.5984375,4.359375 4.51171875,4.54453125 4.61484375,4.66640625 L10.7671875,12 L4.61484375,19.3335937 C4.51171875,19.4554688 4.5984375,19.640625 4.7578125,19.640625 L6.628125,19.640625 C6.73828125,19.640625 6.84375,19.5914062 6.91640625,19.5070312 L11.990625,13.4578125 L17.0648437,19.5070312 C17.1351562,19.5914062 17.240625,19.640625 17.353125,19.640625 L19.2234375,19.640625 C19.3828125,19.640625 19.4695312,19.4554688 19.3664062,19.3335937 L13.2140625,12 Z" id="路径"></path>
            </g>
        </g>
    </g>
</svg>