<?xml version="1.0" encoding="UTF-8"?>
<svg width="22px" height="36px" viewBox="0 0 22 36" version="1.1" xmlns="http://www.w3.org/2000/svg" xmlns:xlink="http://www.w3.org/1999/xlink">
    <!-- Generator: Sketch 51.3 (57544) - http://www.bohemiancoding.com/sketch -->
    <title>顶栏/箭头</title>
    <desc>Created with Sketch.</desc>
    <defs></defs>
    <g id="顶栏/箭头" stroke="none" stroke-width="1" fill="none" fill-rule="evenodd">
        <path d="M20.6419326,19.2768545 L22,18.0085536 L3.27902562,0.521395139 C2.52740708,-0.173798376 1.3164273,-0.173798376 0.564808736,0.521395115 C-0.185233995,1.21786252 -0.1887006,2.35029914 0.557058139,3.05076093 C0.559634241,3.05318056 0.562217753,3.05559329 0.564808658,3.05799915 L16.5658035,18.0049651 L0.564808658,32.9429334 C-0.184702901,33.6384927 -0.188529673,34.7697899 0.556260037,35.4697597 C0.559100551,35.4724293 0.561950087,35.4750905 0.564808596,35.4777432 C1.31395551,36.1773725 2.53948153,36.1701954 3.27902551,35.4795372 L20.5632045,19.3468173 L20.6419609,19.2768544 L20.6419326,19.2768545 Z" id="Shape" fill="#FFFFFF" fill-rule="nonzero" transform="translate(11.000000, 18.000000) scale(-1, 1) translate(-11.000000, -18.000000) "></path>
    </g>
</svg>