<?xml version="1.0" encoding="UTF-8"?>
<svg width="22px" height="22px" viewBox="0 0 22 22" version="1.1" xmlns="http://www.w3.org/2000/svg" xmlns:xlink="http://www.w3.org/1999/xlink">
    <title>芸社区</title>
    <defs>
        <linearGradient x1="84.6550696%" y1="78.5340825%" x2="34.461734%" y2="22.4744166%" id="linearGradient-1">
            <stop stop-color="#908BD6" offset="0%"></stop>
            <stop stop-color="#5B5796" offset="100%"></stop>
        </linearGradient>
    </defs>
    <g id="标签页面" stroke="none" stroke-width="1" fill="none" fill-rule="evenodd">
        <g id="标签栏图标" transform="translate(-226.000000, -285.000000)">
            <g id="编组" transform="translate(0.000000, 279.000000)">
                <g id="编组-4备份" transform="translate(222.000000, 6.000000)">
                    <g id="芸社区" transform="translate(4.000000, 0.000000)">
                        <rect id="矩形" x="0" y="0" width="22" height="22"></rect>
                        <g id="云存储" transform="translate(0.500000, 2.500000)" fill="url(#linearGradient-1)" fill-rule="nonzero">
                            <path d="M10.5016642,0 C13.8693896,0 16.6088576,2.73946806 16.6088576,6.10719339 C16.6088576,6.18489305 16.6077476,6.26259271 16.6044176,6.34029237 C19.1640665,6.84423018 21.0011085,9.06644049 21,11.698239 C21,14.6372896 18.6672259,17.0417465 15.7560013,17.1572887 L15.5366023,17.1616352 L5.46339619,17.1616352 C2.45086932,17.1616352 0,14.7107659 0,11.698239 C0,9.06644049 1.83815199,6.84423018 4.39780084,6.34029237 C4.39447085,6.26259271 4.39336086,6.18489305 4.39336086,6.10719339 C4.39336086,2.73946806 7.13393891,0 10.5016642,0 Z M13.2200424,10.335165 C12.4941056,11.0611018 11.5284098,11.4607001 10.5016642,11.4607001 C9.47491871,11.4607001 8.50922292,11.0611018 7.78328608,10.335165 C7.52354722,10.0754261 7.10174905,10.0754261 6.84090019,10.335165 C6.58116132,10.5949038 6.58116132,11.016702 6.84090019,11.2775509 C7.81880593,12.2554566 9.11861027,12.7938043 10.5016642,12.7938043 C11.8847182,12.7938043 13.1845225,12.2554566 14.1624283,11.2775509 C14.4221672,11.017812 14.4221672,10.5960138 14.1624283,10.335165 C13.9015794,10.0754261 13.4797813,10.0754261 13.2200424,10.335165 Z M13.6022724,4.77272716 C13.2068867,4.77272716 12.8863633,5.09325057 12.8863633,5.48863623 L12.8863633,5.48863623 L12.8863633,6.92045438 C12.8863633,7.31584004 13.2068867,7.63636345 13.6022724,7.63636345 C13.9976581,7.63636345 14.3181815,7.31584004 14.3181815,6.92045438 L14.3181815,6.92045438 L14.3181815,5.48863623 C14.3181815,5.09325057 13.9976581,4.77272716 13.6022724,4.77272716 Z M7.3977271,4.77272716 C7.00234143,4.77272716 6.68181802,5.09325057 6.68181802,5.48863623 L6.68181802,5.48863623 L6.68181802,6.92045438 C6.68181802,7.31584004 7.00234143,7.63636345 7.3977271,7.63636345 C7.79311276,7.63636345 8.11363617,7.31584004 8.11363617,6.92045438 L8.11363617,6.92045438 L8.11363617,5.48863623 C8.11363617,5.09325057 7.79311276,4.77272716 7.3977271,4.77272716 Z" id="形状结合"></path>
                        </g>
                    </g>
                </g>
            </g>
        </g>
    </g>
</svg>