<?xml version="1.0" encoding="UTF-8"?>
<svg width="22px" height="22px" viewBox="0 0 22 22" version="1.1" xmlns="http://www.w3.org/2000/svg" xmlns:xlink="http://www.w3.org/1999/xlink">
    <title>编组 2</title>
    <defs>
        <linearGradient x1="83.024474%" y1="92.7253048%" x2="35.1928429%" y2="8.78476417%" id="linearGradient-1">
            <stop stop-color="#908BD6" offset="0%"></stop>
            <stop stop-color="#5B5796" offset="100%"></stop>
        </linearGradient>
    </defs>
    <g id="标签页面" stroke="none" stroke-width="1" fill="none" fill-rule="evenodd">
        <g id="标签栏图标" transform="translate(-127.000000, -161.000000)">
            <g id="标签栏" transform="translate(0.000000, 155.000000)">
                <g id="编组-2备份-2" transform="translate(123.000000, 6.000000)">
                    <g id="编组-2" transform="translate(4.000000, 0.000000)">
                        <rect id="矩形" x="0" y="0" width="22" height="22"></rect>
                        <g id="通讯录-(1)" transform="translate(1.000000, 1.000000)" fill-rule="nonzero">
                            <path d="M9,7 C9,8.38071187 10.1192881,9.5 11.5,9.5 C12.8807119,9.5 14,8.38071187 14,7 C14,5.61928813 12.8807119,4.5 11.5,4.5 C10.1192881,4.5 9,5.61928813 9,7 L9,7 Z" id="路径"></path>
                            <path d="M11.25,9.5 C8.62692012,9.5 6.5,11.216257 6.5,13.3332819 C6.5,13.8391503 6.62160778,14.3230747 6.84293395,14.7654209 C7.05696365,15.1927527 7.5202893,15.4572365 8.01888121,15.4595464 C9.63261649,15.467631 12.9050819,15.491885 14.4470686,15.5 C14.9456605,15.5022796 15.4102023,15.2424156 15.6315284,14.8185487 C15.8686636,14.3623431 16,13.8599395 16,13.3332819 C16,11.216257 13.8730799,9.5 11.25,9.5 Z" id="路径"></path>
                            <path d="M16.5460478,0 C18.1297425,0 19.4280315,1.25449989 19.5187464,2.83184676 L19.5238095,3.00838878 L19.5238095,16.9916112 C19.5238095,18.5915947 18.2820811,19.9032369 16.7207925,19.9948848 L16.5460478,20 L4.50329202,20 C2.91959724,20 1.6213083,18.7455001 1.5305934,17.1681532 L1.52553026,16.9916112 L1.52553026,13.8848713 L0.687175791,13.8848713 C0.308083813,13.8848713 0,13.5736187 0,13.1906277 C0,12.8395526 0.258875982,12.5487578 0.59401933,12.50273 L0.687175791,12.4963841 L1.52553026,12.4963841 L1.52553026,7.6366792 L0.687175791,7.6366792 C0.308083813,7.6366792 0,7.32542667 0,6.94243564 C0,6.59136052 0.258875982,6.30056568 0.59401933,6.25453789 L0.687175791,6.24819207 L1.52553026,6.24819207 L1.52553026,3.00838878 C1.52553026,1.40840531 2.76725866,0.0967631484 4.32854729,0.00511521812 L4.50329202,0 L16.5460478,0 Z M10.4761893,3.80952381 C8.8150183,3.80952381 7.46422708,5.13951786 7.46422708,6.7737066 C7.46422708,7.56278304 7.7792567,8.27981337 8.29190638,8.81158227 C6.4912389,9.52175106 5.23809524,11.0793193 5.23809524,12.8839028 C5.23809524,13.476282 5.37061692,14.0526508 5.63333536,14.5958556 C5.94720251,15.2477014 6.6353853,15.6708293 7.38401658,15.6742601 C8.24424507,15.6788345 9.59736124,15.6879832 10.8818916,15.6971319 C11.9002162,15.7039934 12.8755293,15.7108549 13.5276755,15.7142857 L13.5393002,15.7142857 C14.2797942,15.7142857 14.965652,15.3003065 15.2888189,14.6576094 C15.5712994,14.0961072 15.7142841,13.4991537 15.7142841,12.8827593 C15.7154458,11.0781757 14.4623021,9.52060747 12.6616346,8.81158227 C13.1742843,8.27981337 13.4893139,7.56278304 13.4893139,6.7737066 C13.4893139,5.13951786 12.1373602,3.80952381 10.4761893,3.80952381 Z M10.4750268,9.77334065 C12.5942113,9.77334065 14.3181977,11.1685193 14.3181977,12.8827593 C14.3204806,13.2864462 14.2263205,13.6786972 14.0391627,14.0492201 C13.9496524,14.22762 13.7531948,14.3419789 13.5393002,14.3419789 L13.5358128,14.3419789 C12.8836666,14.3385481 11.9095159,14.3316866 10.8911914,14.324825 C9.60549854,14.3156763 8.2512199,14.3065276 7.38982894,14.3019533 C7.17360934,14.3008097 6.97831423,14.1853072 6.89229138,14.0069073 C6.71908321,13.6489639 6.63189789,13.2704359 6.63189789,12.8827593 C6.63189789,11.1685193 8.35584228,9.77334065 10.4750268,9.77334065 Z M10.4761893,5.18183066 C11.3678045,5.18183066 12.0943488,5.89543022 12.0943488,6.7737066 C12.0943488,7.65198298 11.3689669,8.36558254 10.4761893,8.36558254 C9.58341159,8.36558254 8.85802973,7.65198298 8.85802973,6.7737066 C8.85802973,5.89543022 9.58457406,5.18183066 10.4761893,5.18183066 Z" id="形状结合" fill="url(#linearGradient-1)"></path>
                        </g>
                    </g>
                </g>
            </g>
        </g>
    </g>
</svg>