<?xml version="1.0" encoding="UTF-8"?>
<svg width="22px" height="22px" viewBox="0 0 22 22" version="1.1" xmlns="http://www.w3.org/2000/svg" xmlns:xlink="http://www.w3.org/1999/xlink">
    <title>编组 4</title>
    <defs>
        <linearGradient x1="81.2762004%" y1="92.7253048%" x2="35.976715%" y2="8.78476417%" id="linearGradient-1">
            <stop stop-color="#908BD6" offset="0%"></stop>
            <stop stop-color="#5B5796" offset="100%"></stop>
        </linearGradient>
    </defs>
    <g id="标签页面" stroke="none" stroke-width="1" fill="none" fill-rule="evenodd">
        <g id="标签栏图标" transform="translate(-321.000000, -412.000000)">
            <g id="编组-6备份" transform="translate(0.000000, 406.000000)">
                <g id="编组-4" transform="translate(321.000000, 6.000000)">
                    <rect id="矩形" x="0" y="0" width="22" height="22"></rect>
                    <g id="我的-(4)备份" transform="translate(1.500000, 1.000000)" fill="url(#linearGradient-1)" fill-rule="nonzero">
                        <path d="M9.50056503,0 C12.2950486,0 14.5688912,2.28425242 14.5688912,5.09152928 C14.5688912,6.70722001 13.8139619,8.14781126 12.6425198,9.08129619 C16.2108137,9.99689906 18.8775819,13.1994383 18.9959008,17.0355101 L19,17.3041501 L19,17.7805571 C19,18.9507873 18.0928585,19.9129597 16.9481728,19.9944147 L16.7906698,20 L2.20932844,20 C1.04443128,20 0.0866436872,19.0887072 0.00555988342,17.9387812 L0,17.7805571 L0,17.3041501 C0,13.3484935 2.70846463,10.0170551 6.35861024,9.08015918 C5.18603633,8.14667425 4.43223882,6.706083 4.43223882,5.09039227 C4.43223882,2.28311541 6.70608146,0 9.50056503,0 Z M13.3473532,16 L5.65264685,16 C5.29260334,16 5,16.33625 5,16.75 C5,17.16375 5.29260334,17.5 5.65264685,17.5 L13.3473532,17.5 C13.7073967,17.5 14,17.16375 14,16.75 C14,16.33625 13.7073967,16 13.3473532,16 Z" id="形状结合"></path>
                    </g>
                </g>
            </g>
        </g>
    </g>
</svg>