<?xml version="1.0" encoding="UTF-8"?>
<svg width="22px" height="22px" viewBox="0 0 22 22" version="1.1" xmlns="http://www.w3.org/2000/svg" xmlns:xlink="http://www.w3.org/1999/xlink">
    <title>编组 5</title>
    <g id="标签页面" stroke="none" stroke-width="1" fill="none" fill-rule="evenodd">
        <g id="标签栏图标" transform="translate(-321.000000, -285.000000)">
            <g id="编组" transform="translate(0.000000, 279.000000)">
                <g id="编组-5" transform="translate(321.000000, 6.000000)">
                    <rect id="矩形" x="0" y="0" width="22" height="22"></rect>
                    <g id="我的-(4)" transform="translate(1.500000, 1.000000)" fill="#8C8C8C" fill-rule="nonzero">
                        <path d="M12.6425198,9.08129619 C13.8139619,8.14781126 14.5688912,6.70722001 14.5688912,5.09152928 C14.5688912,2.28425242 12.2950486,0 9.50056503,0 C6.70608146,0 4.43223882,2.28311541 4.43223882,5.09039227 C4.43223882,6.706083 5.18603633,8.14667425 6.35861024,9.08015918 C2.70846463,10.0170551 0,13.3484935 0,17.3041501 L0,17.7805571 C0,19.0039795 0.991481411,20 2.20932844,20 L16.7906698,20 C18.0085168,20 19,19.0039795 19,17.7805571 L19,17.3041501 C19.0011301,13.3496305 16.2937973,10.0181922 12.6425198,9.08129619 L12.6425198,9.08129619 Z M5.79043253,5.09039227 C5.79043253,3.0358158 7.45421983,1.36327459 9.50056503,1.36327459 C11.5469102,1.36327459 13.2106975,3.03467879 13.2106975,5.09039227 C13.2106975,7.14610574 11.5469102,8.81750995 9.50056503,8.81750995 C7.45421983,8.81750995 5.79043253,7.14610574 5.79043253,5.09039227 Z M17.6429363,17.7816941 C17.6429363,18.2535532 17.2615103,18.6367254 16.7918016,18.6367254 L2.20932844,18.6367254 C1.73961978,18.6367254 1.35819371,18.2535532 1.35819371,17.7816941 L1.35819371,17.3052871 C1.35819371,13.3780557 4.53863066,10.1819215 8.44909673,10.1819215 L10.5509015,10.1819215 C14.4602357,10.1819215 17.6418045,13.3769187 17.6418045,17.3052871 L17.6418045,17.7816941 L17.6429363,17.7816941 Z" id="形状"></path>
                        <path d="M13.3473532,16 L5.65264685,16 C5.29260334,16 5,16.33625 5,16.75 C5,17.16375 5.29260334,17.5 5.65264685,17.5 L13.3473532,17.5 C13.7073967,17.5 14,17.16375 14,16.75 C14,16.33625 13.7073967,16 13.3473532,16 Z" id="路径"></path>
                    </g>
                </g>
            </g>
        </g>
    </g>
</svg>