<?xml version="1.0" encoding="UTF-8"?>
<svg width="22px" height="22px" viewBox="0 0 22 22" version="1.1" xmlns="http://www.w3.org/2000/svg" xmlns:xlink="http://www.w3.org/1999/xlink">
    <title>芸社区-未选中状态</title>
    <g id="标签页面" stroke="none" stroke-width="1" fill="none" fill-rule="evenodd">
        <g id="标签栏图标" transform="translate(-226.000000, -161.000000)">
            <g id="标签栏" transform="translate(0.000000, 155.000000)">
                <g id="编组-4" transform="translate(222.000000, 6.000000)">
                    <g id="芸社区-未选中状态" transform="translate(4.000000, 0.000000)">
                        <rect id="矩形备份" x="0" y="0" width="22" height="22"></rect>
                        <g id="云存储备份" transform="translate(0.500000, 2.500000)" fill="#8C8C8C" fill-rule="nonzero">
                            <path d="M16.604418,6.34029252 C16.607748,6.26259286 16.608858,6.1848932 16.608858,6.10719353 C16.608858,2.73946813 13.8693899,0 10.5016645,0 C7.13393908,0 4.39336096,2.73946813 4.39336096,6.10719353 C4.39336096,6.1848932 4.39447096,6.26259286 4.39780094,6.34029252 C1.83815203,6.84423034 0,9.06644071 0,11.6982393 C0,14.7107662 2.45086938,17.1616356 5.46339632,17.1616356 L15.5366027,17.1616356 C18.5491296,17.1616356 21,14.7107662 21,11.6982393 C21.001109,9.06644071 19.164067,6.84423034 16.604418,6.34029252 L16.604418,6.34029252 Z M15.5377127,15.8307514 L5.46450632,15.8307514 C3.18568619,15.8307514 1.33310422,13.9770594 1.33310422,11.6993493 C1.33310422,9.65917814 2.79385789,7.94423557 4.80516918,7.62122697 C5.36904673,7.53131736 5.77863496,7.0151696 5.73867513,6.44796206 C5.73072633,6.33454471 5.72665397,6.22088893 5.72646518,6.10719353 C5.72646518,3.47428494 7.8687559,1.33199423 10.5016645,1.33199423 C13.1345731,1.33199423 15.2768638,3.47428494 15.2768638,6.10719353 C15.2768638,6.22041304 15.2724238,6.33474255 15.2646538,6.44796206 C15.223584,7.0151696 15.6342822,7.53020737 16.1981598,7.62122697 C18.2094711,7.94312558 19.6702248,9.65917814 19.6702248,11.6993493 C19.6691148,13.9770594 17.8154228,15.8307514 15.5377127,15.8307514 Z" id="形状"></path>
                            <path d="M13.2200427,10.3351652 C12.4941059,11.0611021 11.52841,11.4607003 10.5016645,11.4607003 C9.47491894,11.4607003 8.50922312,11.0611021 7.78328627,10.3351652 C7.5235474,10.0754263 7.10174922,10.0754263 6.84090035,10.3351652 C6.58116148,10.5949041 6.58116148,11.0167023 6.84090035,11.2775511 C7.81880612,12.2554569 9.11861048,12.7938046 10.5016645,12.7938046 C11.8847185,12.7938046 13.1845229,12.2554569 14.1624286,11.2775511 C14.4221675,11.0178123 14.4221675,10.5960141 14.1624286,10.3351652 C13.9015798,10.0754263 13.4797816,10.0754263 13.2200427,10.3351652 Z" id="路径"></path>
                        </g>
                    </g>
                </g>
            </g>
        </g>
    </g>
</svg>