<?xml version="1.0" encoding="UTF-8"?>
<svg width="22px" height="22px" viewBox="0 0 22 22" version="1.1" xmlns="http://www.w3.org/2000/svg" xmlns:xlink="http://www.w3.org/1999/xlink">
    <title>编组</title>
    <defs>
        <linearGradient x1="84.6550696%" y1="86.8099752%" x2="34.461734%" y2="14.4910243%" id="linearGradient-1">
            <stop stop-color="#908BD6" offset="0%"></stop>
            <stop stop-color="#5B5796" offset="100%"></stop>
        </linearGradient>
    </defs>
    <g id="标签页面" stroke="none" stroke-width="1" fill="none" fill-rule="evenodd">
        <g id="聊天" transform="translate(-32.000000, -737.000000)">
            <g id="编组" transform="translate(32.000000, 737.000000)">
                <rect id="矩形" x="0" y="0" width="22" height="22"></rect>
                <g id="消息-(2)" transform="translate(1.000000, 1.500000)" fill="url(#linearGradient-1)" fill-rule="nonzero">
                    <path d="M16.1900468,0 C18.2911571,0 20,1.70997013 20,3.80995322 L20,12.0780026 C20,14.1791129 18.2900299,15.8879558 16.1900468,15.8879558 L10.5461309,15.8879558 L5.25390295,18.450093 C5.10051411,18.5250452 4.9320362,18.5639407 4.76131432,18.5639407 C4.55278138,18.5639407 4.34537564,18.505326 4.16164121,18.3903511 C3.83124794,18.1842109 3.63119958,17.8216499 3.63298202,17.4322268 L3.63523643,15.8845742 C1.6152849,15.7921434 0,14.1204982 0,12.0780026 L0,3.80995322 C0,1.70884292 1.70997013,0 3.80995322,0 L16.1900468,0 Z M5.11187511,6.62909316 C4.4482494,6.62909316 3.91027447,7.16706809 3.91027447,7.83069379 C3.91027447,8.4943195 4.4482494,9.03229443 5.11187511,9.03229443 C5.77550081,9.03229443 6.31347574,8.4943195 6.31347574,7.83069379 C6.31347574,7.16706809 5.77550081,6.62909316 5.11187511,6.62909316 Z M9.95434819,6.62909316 C9.29072249,6.62909316 8.75274756,7.16706809 8.75274756,7.83069379 C8.75274756,8.4943195 9.29072249,9.03229443 9.95434819,9.03229443 C10.6179739,9.03229443 11.1559488,8.4943195 11.1559488,7.83069379 C11.1559488,7.16706809 10.6179739,6.62909316 9.95434819,6.62909316 Z M14.7539875,6.62909316 C14.0903618,6.62909316 13.5523869,7.16706809 13.5523869,7.83069379 C13.5523869,8.4943195 14.0903618,9.03229443 14.7539875,9.03229443 C15.4176132,9.03229443 15.9555881,8.4943195 15.9555881,7.83069379 C15.9555881,7.16706809 15.4176132,6.62909316 14.7539875,6.62909316 Z" id="形状结合"></path>
                </g>
            </g>
        </g>
    </g>
</svg>