<?xml version="1.0" encoding="UTF-8"?>
<svg width="22px" height="22px" viewBox="0 0 22 22" version="1.1" xmlns="http://www.w3.org/2000/svg" xmlns:xlink="http://www.w3.org/1999/xlink">
    <title>编组 3</title>
    <g id="标签页面" stroke="none" stroke-width="1" fill="none" fill-rule="evenodd">
        <g id="标签栏图标" transform="translate(-127.000000, -285.000000)">
            <g id="编组" transform="translate(0.000000, 279.000000)">
                <g id="编组-2备份" transform="translate(123.000000, 6.000000)">
                    <g id="编组-3" transform="translate(4.000000, 0.000000)">
                        <rect id="矩形" x="0" y="0" width="22" height="22"></rect>
                        <g id="通讯录-(1)备份" transform="translate(1.000000, 1.000000)" fill-rule="nonzero">
                            <path d="M8.57142857,6.66666667 C8.57142857,7.98163036 9.63741726,9.04761905 10.952381,9.04761905 C12.2673446,9.04761905 13.3333333,7.98163036 13.3333333,6.66666667 C13.3333333,5.35170298 12.2673446,4.28571429 10.952381,4.28571429 C9.63741726,4.28571429 8.57142857,5.35170298 8.57142857,6.66666667 L8.57142857,6.66666667 Z" id="路径"></path>
                            <path d="M10.7142857,9.04761905 C8.2161144,9.04761905 6.19047619,10.6821495 6.19047619,12.6983637 C6.19047619,13.1801432 6.30629313,13.6410236 6.51707995,14.0623056 C6.72091776,14.4692883 7.16218028,14.7211776 7.63702972,14.7233775 C9.17392046,14.7310772 12.2905542,14.7541762 13.759113,14.7619048 C14.2339624,14.7640758 14.6763831,14.5165863 14.8871699,14.1129035 C15.1130129,13.678422 15.2380952,13.1999423 15.2380952,12.6983637 C15.2380952,10.6821495 13.212457,9.04761905 10.7142857,9.04761905 Z" id="路径"></path>
                            <path d="M16.5460478,0 L4.50329202,0 C2.86094188,0 1.52553026,1.34914666 1.52553026,3.00838878 L1.52553026,6.24819207 L0.687175791,6.24819207 C0.308083813,6.24819207 0,6.55944461 0,6.94243564 C0,7.32542667 0.308083813,7.6366792 0.687175791,7.6366792 L1.52553026,7.6366792 L1.52553026,12.4963841 L0.687175791,12.4963841 C0.308083813,12.4963841 0,12.8076367 0,13.1906277 C0,13.5736187 0.308083813,13.8848713 0.687175791,13.8848713 L1.52553026,13.8848713 L1.52553026,16.9916112 C1.52553026,18.6508533 2.86094188,20 4.50329202,20 L16.5460478,20 C18.1883979,20 19.5238095,18.6508533 19.5238095,16.9916112 L19.5238095,3.00838878 C19.5238095,1.34914666 18.1883979,0 16.5460478,0 Z M18.1494579,16.9916112 C18.1494579,17.8848713 17.4302139,18.6115129 16.5460478,18.6115129 L4.50329202,18.6115129 C3.61912583,18.6115129 2.89988184,17.8848713 2.89988184,16.9916112 L2.89988184,13.8848713 L3.70387752,13.8848713 C4.08296949,13.8848713 4.39105331,13.5736187 4.39105331,13.1906277 C4.39105331,12.8076367 4.08296949,12.4963841 3.70387752,12.4963841 L2.89988184,12.4963841 L2.89988184,7.6366792 L3.70387752,7.6366792 C4.08296949,7.6366792 4.39105331,7.32542667 4.39105331,6.94243564 C4.39105331,6.55944461 4.08296949,6.24819207 3.70387752,6.24819207 L2.89988184,6.24819207 L2.89988184,3.00838878 C2.89988184,2.11512872 3.61912583,1.38848713 4.50329202,1.38848713 L16.5460478,1.38848713 C17.4302139,1.38848713 18.1494579,2.11512872 18.1494579,3.00838878 L18.1494579,16.9916112 L18.1494579,16.9916112 Z" id="形状" fill="#8C8C8C"></path>
                            <path d="M12.6616346,8.81158227 C13.1742843,8.27981337 13.4893139,7.56278304 13.4893139,6.7737066 C13.4893139,5.13951786 12.1373602,3.80952381 10.4761893,3.80952381 C8.8150183,3.80952381 7.46422708,5.13951786 7.46422708,6.7737066 C7.46422708,7.56278304 7.7792567,8.27981337 8.29190638,8.81158227 C6.4912389,9.52175106 5.23809524,11.0793193 5.23809524,12.8839028 C5.23809524,13.476282 5.37061692,14.0526508 5.63333536,14.5958556 C5.94720251,15.2477014 6.6353853,15.6708293 7.38401658,15.6742601 C8.24424507,15.6788345 9.59736124,15.6879832 10.8818916,15.6971319 C11.9002162,15.7039934 12.8755293,15.7108549 13.5276755,15.7142857 L13.5393002,15.7142857 C14.2797942,15.7142857 14.965652,15.3003065 15.2888189,14.6576094 C15.5712994,14.0961072 15.7142841,13.4991537 15.7142841,12.8827593 C15.7154458,11.0781757 14.4623021,9.52060747 12.6616346,8.81158227 L12.6616346,8.81158227 Z M10.4761893,5.18183066 C11.3678045,5.18183066 12.0943488,5.89543022 12.0943488,6.7737066 C12.0943488,7.65198298 11.3689669,8.36558254 10.4761893,8.36558254 C9.58341159,8.36558254 8.85802973,7.65198298 8.85802973,6.7737066 C8.85802973,5.89543022 9.58457406,5.18183066 10.4761893,5.18183066 Z M14.0391627,14.0492201 C13.9496524,14.22762 13.7531948,14.3419789 13.5393002,14.3419789 L13.5358128,14.3419789 C12.8836666,14.3385481 11.9095159,14.3316866 10.8911914,14.324825 C9.60549854,14.3156763 8.2512199,14.3065276 7.38982894,14.3019533 C7.17360934,14.3008097 6.97831423,14.1853072 6.89229138,14.0069073 C6.71908321,13.6489639 6.63189789,13.2704359 6.63189789,12.8827593 C6.63189789,11.1685193 8.35584228,9.77334065 10.4750268,9.77334065 C12.5942113,9.77334065 14.3181977,11.1685193 14.3181977,12.8827593 C14.3204806,13.2864462 14.2263205,13.6786972 14.0391627,14.0492201 Z" id="形状" fill="#8C8C8C"></path>
                        </g>
                    </g>
                </g>
            </g>
        </g>
    </g>
</svg>